<?xml version="1.0" encoding="UTF-8"?>
<!DOCTYPE svg PUBLIC "-//W3C//DTD SVG 1.1//EN" "http://www.w3.org/Graphics/SVG/1.1/DTD/svg11.dtd">
<!-- Creator: CorelDRAW X8 -->
<svg xmlns="http://www.w3.org/2000/svg" xml:space="preserve" width="2.4in" height="1.256in" version="1.1" style="shape-rendering:geometricPrecision; text-rendering:geometricPrecision; image-rendering:optimizeQuality; fill-rule:evenodd; clip-rule:evenodd"
viewBox="0 0 2400 1256"
 xmlns:xlink="http://www.w3.org/1999/xlink">
 <defs>
  <style type="text/css">
   <![CDATA[
    .fil1 {fill:#228C22}
    .fil0 {fill:#EBEDED}
    .fil2 {fill:#FFC201}
   ]]>
  </style>
 </defs>
 <g id="Layer_x0020_1">
  <metadata id="CorelCorpID_0Corel-Layer"/>
  <rect class="fil0" x="3" y="600" width="2394.17" height="56.233"/>
  <polygon class="fil1" points="31,600 59,656 3,656 "/>
  <polygon class="fil2" points="75,656 103,600 47,600 "/>
  <polygon class="fil1" points="119,600 147,656 91,656 "/>
  <polygon class="fil1" points="208,600 236,656 180,656 "/>
  <polygon class="fil2" points="164,656 192,600 136,600 "/>
  <polygon class="fil2" points="252,656 280,600 224,600 "/>
  <polygon class="fil1" points="296,600 324,656 268,656 "/>
  <polygon class="fil2" points="340,656 368,600 312,600 "/>
  <polygon class="fil1" points="384,600 412,656 356,656 "/>
  <polygon class="fil1" points="473,600 501,656 444,656 "/>
  <polygon class="fil2" points="428,656 456,600 400,600 "/>
  <polygon class="fil2" points="516,656 545,600 488,600 "/>
  <polygon class="fil1" points="560,600 589,656 532,656 "/>
  <polygon class="fil2" points="605,656 633,600 577,600 "/>
  <polygon class="fil1" points="649,600 677,656 621,656 "/>
  <polygon class="fil1" points="737,600 765,656 709,656 "/>
  <polygon class="fil2" points="693,656 721,600 665,600 "/>
  <polygon class="fil2" points="781,656 809,600 753,600 "/>
  <polygon class="fil1" points="825,600 853,656 797,656 "/>
  <polygon class="fil1" points="914,600 942,656 886,656 "/>
  <polygon class="fil2" points="869,656 897,600 841,600 "/>
  <polygon class="fil2" points="958,656 986,600 929,600 "/>
  <polygon class="fil1" points="1002,600 1030,656 974,656 "/>
  <polygon class="fil2" points="1046,656 1074,600 1018,600 "/>
  <polygon class="fil1" points="1090,600 1118,656 1062,656 "/>
  <polygon class="fil1" points="1178,600 1206,656 1150,656 "/>
  <polygon class="fil2" points="1134,656 1162,600 1106,600 "/>
  <polygon class="fil2" points="1222,656 1250,600 1194,600 "/>
  <polygon class="fil1" points="1266,600 1294,656 1238,656 "/>
  <polygon class="fil2" points="1310,656 1338,600 1282,600 "/>
  <polygon class="fil1" points="1354,600 1382,656 1326,656 "/>
  <polygon class="fil1" points="1443,600 1471,656 1415,656 "/>
  <polygon class="fil2" points="1398,656 1426,600 1370,600 "/>
  <polygon class="fil2" points="1487,656 1515,600 1458,600 "/>
  <polygon class="fil1" points="1531,600 1559,656 1503,656 "/>
  <polygon class="fil1" points="1619,600 1647,656 1591,656 "/>
  <polygon class="fil2" points="1575,656 1603,600 1547,600 "/>
  <polygon class="fil2" points="1663,656 1691,600 1635,600 "/>
  <polygon class="fil1" points="1707,600 1735,656 1679,656 "/>
  <polygon class="fil2" points="1751,656 1780,600 1723,600 "/>
  <polygon class="fil1" points="1795,600 1824,656 1767,656 "/>
  <polygon class="fil1" points="1884,600 1912,656 1856,656 "/>
  <polygon class="fil2" points="1840,656 1868,600 1812,600 "/>
  <polygon class="fil2" points="1928,656 1956,600 1900,600 "/>
  <polygon class="fil1" points="1972,600 2000,656 1944,656 "/>
  <polygon class="fil2" points="2016,656 2044,600 1988,600 "/>
  <polygon class="fil1" points="2060,600 2088,656 2032,656 "/>
  <polygon class="fil1" points="2149,600 2177,656 2121,656 "/>
  <polygon class="fil2" points="2104,656 2132,600 2076,600 "/>
  <polygon class="fil2" points="2193,656 2221,600 2164,600 "/>
  <polygon class="fil1" points="2237,600 2265,656 2208,656 "/>
  <polygon class="fil1" points="2325,600 2353,656 2297,656 "/>
  <polygon class="fil2" points="2281,656 2309,600 2253,600 "/>
  <polygon class="fil2" points="2369,656 2397,600 2341,600 "/>
 </g>
</svg>
