<?xml version="1.0" encoding="UTF-8"?>
<!DOCTYPE svg PUBLIC "-//W3C//DTD SVG 1.1//EN" "http://www.w3.org/Graphics/SVG/1.1/DTD/svg11.dtd">
<!-- Creator: CorelDRAW X8 -->
<svg xmlns="http://www.w3.org/2000/svg" xml:space="preserve" width="8.5in" height="11in" version="1.1" style="shape-rendering:geometricPrecision; text-rendering:geometricPrecision; image-rendering:optimizeQuality; fill-rule:evenodd; clip-rule:evenodd"
viewBox="0 0 8500 11000"
 xmlns:xlink="http://www.w3.org/1999/xlink">
 <defs>
  <style type="text/css">
   <![CDATA[
    .fil20 {fill:#E24096;fill-rule:nonzero}
    .fil16 {fill:#83C77C;fill-rule:nonzero}
    .fil24 {fill:#6FC5A4;fill-rule:nonzero}
    .fil13 {fill:#6DC5A6;fill-rule:nonzero}
    .fil22 {fill:#6EC5A3;fill-rule:nonzero}
    .fil14 {fill:#1BA154;fill-rule:nonzero}
    .fil23 {fill:#189350;fill-rule:nonzero}
    .fil25 {fill:#1C9853;fill-rule:nonzero}
    .fil5 {fill:#1F884D;fill-rule:nonzero}
    .fil2 {fill:#1E854C;fill-rule:nonzero}
    .fil0 {fill:#1D814B;fill-rule:nonzero}
    .fil8 {fill:#275437;fill-rule:nonzero}
    .fil9 {fill:#275739;fill-rule:nonzero}
    .fil10 {fill:#235B3B;fill-rule:nonzero}
    .fil7 {fill:#1B633F;fill-rule:nonzero}
    .fil21 {fill:#00FFBB;fill-rule:nonzero}
    .fil27 {fill:#00FFBF;fill-rule:nonzero}
    .fil11 {fill:#14A14F;fill-rule:nonzero}
    .fil26 {fill:#1C9854;fill-rule:nonzero}
    .fil1 {fill:#1E8144;fill-rule:nonzero}
    .fil3 {fill:#218848;fill-rule:nonzero}
    .fil4 {fill:#228D4B;fill-rule:nonzero}
    .fil19 {fill:#23924E;fill-rule:nonzero}
    .fil15 {fill:#2FC472;fill-rule:nonzero}
    .fil17 {fill:#3BD779;fill-rule:nonzero}
    .fil6 {fill:#47EB8B;fill-rule:nonzero}
    .fil18 {fill:#59FFA4;fill-rule:nonzero}
    .fil12 {fill:#E77F68;fill-rule:nonzero}
   ]]>
  </style>
 </defs>
 <g id="Layer_x0020_1">
  <metadata id="CorelCorpID_0Corel-Layer"/>
  <polygon class="fil0" points="778,7467 7722,7467 7722,7464 778,7464 "/>
  <path class="fil1" d="M1407 2919c-42,0 -76,34 -76,76l0 3770c0,42 34,76 76,76l2682 0c42,0 76,-34 76,-76l0 -3770c0,-42 -34,-76 -76,-76l-2682 0zm2684 -3l-2686 0c-43,1 -77,36 -77,79l0 3770c0,44 35,79 79,79l2682 0c44,0 79,-35 79,-79l0 -3770c0,-43 -34,-78 -77,-79z"/>
  <path class="fil1" d="M4411 2919c-42,0 -76,34 -76,76l0 3770c0,42 34,76 76,76l2682 0c42,0 76,-34 76,-76l0 -3770c0,-42 -34,-76 -76,-76l-2682 0zm2684 -3l-2686 0c-43,1 -77,36 -77,79l0 3770c0,44 35,79 79,79l2682 0c44,0 79,-35 79,-79l0 -3770c0,-43 -34,-78 -77,-79z"/>
  <polygon class="fil0" points="778,7467 7722,7467 7722,7464 778,7464 "/>
  <polygon class="fil0" points="6566,7691 7026,7691 7026,7687 6566,7687 "/>
  <polygon class="fil0" points="5257,7728 5378,7728 5378,7725 5257,7725 "/>
  <polygon class="fil0" points="6286,7562 6552,7562 6552,7558 6286,7558 "/>
  <polygon class="fil0" points="1506,7585 2106,7585 2106,7582 1506,7582 "/>
  <polygon class="fil0" points="2604,7644 3905,7644 3905,7640 2604,7640 "/>
  <path class="fil2" d="M2922 4356c171,1 649,70 649,-187 0,-218 -234,-202 -234,-202 0,0 7,-190 -201,-215 -214,-26 -247,179 -247,179 0,0 -371,-130 -314,197 0,0 -206,-37 -206,110 0,165 387,118 553,118z"/>
  <path class="fil3" d="M2707 6301c346,1 1318,160 1318,-429 0,-500 -475,-463 -475,-463 0,0 14,-434 -409,-492 -434,-59 -500,410 -500,410 0,0 -753,-299 -639,450 0,0 -417,-83 -417,254 0,308 524,292 900,277 84,-3 160,-7 222,-7z"/>
  <path class="fil2" d="M4001 6353c-191,1 -729,89 -729,-237 0,-277 263,-256 263,-256 0,0 -8,-240 226,-272 240,-33 277,226 277,226 0,0 416,-165 353,249 0,0 231,-46 231,141 0,170 -290,162 -498,153 -46,-2 -89,-4 -123,-4z"/>
  <path class="fil2" d="M5071 4988c192,1 728,74 728,-197 0,-231 -262,-214 -262,-214 0,0 7,-200 -226,-227 -240,-27 -276,189 -276,189 0,0 -415,-137 -352,208 0,0 -231,-39 -231,117 0,141 290,134 497,127 46,-1 89,-3 122,-3z"/>
  <path class="fil4" d="M4501 7462l280 -1812 831 -1049 283 -1195c0,0 687,664 706,681 19,17 170,1809 191,1836 21,28 219,340 219,340l92 1194 -2602 5z"/>
  <polygon class="fil0" points="4501,7462 4900,5896 5464,5358 5570,6039 5712,5265 5873,5529 5838,4618 5866,4327 5961,4520 5895,3406 6374,3417 6474,3943 6601,4087 6792,5923 7011,6263 7103,7457 "/>
  <path class="fil3" d="M5908 3412l284 920 170 135c0,0 89,374 88,350 -1,-24 -10,-443 -10,-443l44 -342 -111 -609 -465 -11z"/>
  <polygon class="fil3" points="6792,5923 6859,6233 7011,6263 "/>
  <path class="fil5" d="M5723 6839c304,1 1156,141 1156,-376 0,-438 -417,-406 -417,-406 0,0 12,-380 -358,-431 -381,-52 -438,359 -438,359 0,0 -661,-261 -560,395 0,0 -366,-73 -366,222 0,331 689,236 983,237z"/>
  <polygon class="fil0" points="2230,7585 2318,7585 2318,7582 2230,7582 "/>
  <path class="fil3" d="M6973 7926c0,87 -1206,157 -2693,157 -1488,0 -2693,-70 -2693,-157 0,-87 1205,-157 2693,-157 1487,0 2693,70 2693,157z"/>
  <path class="fil6" d="M6380 3473c0,134 -109,243 -243,243 -5,0 -11,0 -16,-1 -127,-8 -227,-113 -227,-242 0,-129 100,-234 227,-242 5,-1 11,-1 16,-1 134,0 243,109 243,243z"/>
  <path class="fil6" d="M6121 3715l0 0c-127,-8 -227,-113 -227,-242 0,-129 100,-234 227,-242 126,8 226,113 226,242 0,129 -100,234 -226,242zm-1 -424c-100,0 -182,82 -182,182 0,100 82,182 182,182 101,0 182,-82 182,-182 0,-100 -81,-182 -182,-182z"/>
  <path class="fil0" d="M6120 3655c-100,0 -182,-82 -182,-182 0,-100 82,-182 182,-182 101,0 182,82 182,182 0,100 -81,182 -182,182zm-77 -133l-13 38c17,11 44,20 73,23l-1 33 31 0 0 -33c50,-4 78,-31 71,-71 -6,-35 -38,-46 -67,-54l1 -53c17,2 33,7 48,16l12 -38c-17,-9 -37,-15 -59,-17l1 -34 -30 0 -1 34c-51,3 -79,30 -72,71 6,36 39,47 69,56l-2 51c-21,-2 -43,-10 -61,-22zm92 21l1 -41c11,3 19,9 20,18 2,11 -6,20 -21,23zm-29 -93c-11,-5 -20,-10 -21,-20 -2,-11 6,-21 23,-24l-2 44z"/>
  <path class="fil6" d="M6133 3616l-31 0 1 -33c-29,-3 -56,-12 -73,-23l13 -38c18,12 40,20 61,22l2 -51c-30,-9 -63,-20 -69,-56 -7,-41 21,-68 72,-71l1 -34 30 0 -1 34c22,2 42,8 59,17l-12 38c-15,-9 -31,-14 -48,-16l-1 53c29,8 61,19 67,54 7,40 -21,67 -71,71l0 33zm3 -114l-1 41c15,-3 23,-12 21,-23 -1,-9 -9,-15 -20,-18zm-28 -96c-17,3 -25,13 -23,24 1,10 10,15 21,20l2 -44z"/>
  <polygon class="fil4" points="4107,7927 4929,7927 4929,5704 4107,5704 "/>
  <path class="fil7" d="M4107 7769l0 -302 0 0 0 302 0 0zm0 -305l0 0 0 -622c0,0 0,0 0,0l0 622zm0 -625l0 -483c0,0 0,0 0,0l0 483c0,0 0,0 0,0zm0 -1045l0 -92 58 0 0 2 -58 0 0 90c0,0 0,0 0,0zm232 -90l-4 0 0 -2 4 0 0 2zm-7 0l-164 0 0 -2 164 0 0 2z"/>
  <path class="fil8" d="M4107 6842l0 -3c0,0 0,0 0,0l0 3c0,0 0,0 0,0zm61 -1138l-3 0 0 -2 3 0 0 2z"/>
  <polygon class="fil8" points="4332,5704 4335,5704 4335,5702 4332,5702 "/>
  <polygon class="fil8" points="4107,7467 4107,7467 4107,7464 4107,7464 "/>
  <path class="fil9" d="M4107 6356c0,0 0,0 0,0l0 -562c0,0 0,0 0,0l0 562z"/>
  <polygon class="fil10" points="4339,7927 4107,7927 4107,7769 4107,7769 4107,7927 4339,7927 "/>
  <polygon class="fil6" points="4339,7927 4107,7927 4107,5704 4339,5704 "/>
  <polygon class="fil4" points="3284,7927 4106,7927 4106,6593 3284,6593 "/>
  <polygon class="fil6" points="3284,7925 3531,7925 3531,6593 3284,6593 "/>
  <polygon class="fil4" points="2462,7927 3283,7927 3283,6876 2462,6876 "/>
  <polygon class="fil6" points="2462,7925 2706,7925 2706,6876 2462,6876 "/>
  <polygon class="fil4" points="1639,7927 2461,7927 2461,7159 1639,7159 "/>
  <polygon class="fil7" points="1640,7159 1872,7159 1872,7159 1640,7159 "/>
  <polygon class="fil6" points="1640,7925 1872,7925 1872,7159 1640,7159 "/>
  <path class="fil11" d="M3874 3987c-39,47 -79,93 -120,140l-30 34 -27 30c-11,14 -19,30 -21,48l-10 90c-3,30 -6,61 -9,91 -7,61 -14,122 -22,183 -3,21 -23,36 -44,33 -19,-3 -32,-18 -33,-36 -4,-62 -6,-123 -8,-184 -2,-30 -2,-61 -3,-91l-2 -93c0,-43 15,-86 39,-122l30 -41 28 -36c37,-49 73,-97 112,-144 26,-34 75,-39 109,-12 33,27 38,76 12,109l-1 1z"/>
  <path class="fil12" d="M3548 4607l-51 86 117 12 21 -88c2,-10 -5,-21 -15,-22 -20,-4 -50,-5 -72,12z"/>
  <path class="fil12" d="M3497 4693l5 30c3,15 16,26 32,26l38 0c11,0 22,-6 27,-16l15 -28 -117 -12z"/>
  <polygon class="fil13" points="3540,4542 3652,4546 3645,4613 3550,4606 "/>
  <polygon class="fil11" points="3645,4613 3635,4612 3550,4606 3550,4605 3540,4542 3652,4546 "/>
  <path class="fil11" d="M3653 5248l-18 27 -15 -28 34 -436c5,-70 -18,-127 -104,-129 -81,-2 -130,53 -135,122l-36 436 -19 27 -13 -28 35 -435c7,-81 43,-145 169,-142 128,3 142,69 136,149l-34 437z"/>
  <path class="fil14" d="M3296 4953l-23 0c-46,0 -85,34 -92,80l-41 315 145 5 11 -400z"/>
  <path class="fil15" d="M3214 5350l-74 -2 41 -315c7,-45 46,-80 92,-80 0,0 0,0 0,0l19 0c-39,1 -71,33 -71,74l0 0 -6 252c0,2 0,4 1,6l-2 65z"/>
  <path class="fil14" d="M3704 5251l-33 -1 4 -436c0,-69 -27,-126 -114,-128 -80,-2 -125,53 -126,122l-5 435 -33 0 5 -436c1,-80 33,-145 160,-142 127,3 146,69 145,150l-3 436z"/>
  <path class="fil11" d="M3858 5370l-644 -19 7 -324c0,-42 34,-75 75,-74l468 13c53,1 95,46 95,99l-1 305z"/>
  <path class="fil16" d="M3216 5285c-1,-2 -1,-4 -1,-6l6 -252 -5 258z"/>
  <path class="fil6" d="M3749 5367l-464 -14c-37,-1 -67,-31 -69,-68l5 -258c0,-41 33,-74 73,-74 0,0 1,0 2,0l105 3 -4 287 15 28 18 -28 3 -286 241 6 -3 287 17 29 16 -28 2 -287 19 1c1,134 18,277 24,402z"/>
  <path class="fil17" d="M3706 4964l-32 -1 1 -149c0,0 0,-1 0,-2 0,-58 -20,-107 -79,-122 -10,-2 -22,-4 -35,-4 -1,0 -2,0 -4,0 -18,0 -34,3 -48,8l0 0c-4,1 -7,3 -11,5 -41,19 -63,61 -63,109l-2 149 -32 -1 1 -149c1,-78 31,-142 151,-142 3,0 6,0 9,0 125,3 145,68 145,147 0,1 0,2 0,3l-1 149z"/>
  <path class="fil18" d="M3688 5279l-17 -29 3 -287 32 1 -2 287 -16 28zm-276 -8l-15 -28 4 -287 32 1 -3 286 -18 28z"/>
  <polygon class="fil11" points="3441,5075 3387,5074 3388,5054 3441,5055 "/>
  <polygon class="fil11" points="3439,5206 3386,5205 3386,5184 3440,5186 "/>
  <polygon class="fil11" points="3716,5083 3663,5081 3663,5061 3716,5062 "/>
  <polygon class="fil11" points="3715,5214 3662,5212 3662,5192 3716,5194 "/>
  <polygon class="fil19" points="3614,5091 3499,5088 3499,5045 3614,5048 "/>
  <path class="fil11" d="M4110 3500c5,-1 9,3 11,10 1,7 -1,13 -5,14 -5,1 -10,-4 -11,-10 -2,-7 1,-13 5,-14z"/>
  <path class="fil11" d="M4111 3505c5,-2 9,-7 11,-11 -4,3 -10,5 -15,5 2,1 4,4 4,6z"/>
  <path class="fil12" d="M4120 3573c12,1 23,-4 31,-13 -17,-14 -32,-31 -45,-50l14 63z"/>
  <path class="fil11" d="M4073 3489c7,-8 16,-13 27,-12l1 0c2,0 4,-2 4,-4 0,-3 -2,-4 -4,-4 -13,-1 -26,4 -34,14l-1 2c0,3 2,5 4,5l3 -1z"/>
  <path class="fil12" d="M4031 3890c-116,1 -133,-62 -133,-62 34,-33 36,-95 28,-150 9,13 20,23 35,33 27,18 87,-11 87,-11 0,0 0,10 1,25 2,36 10,99 43,109 0,0 66,55 -61,56z"/>
  <path class="fil20" d="M4050 3709c-1,6 -3,11 -3,17l-2 0c-27,7 -57,3 -84,-15 -15,-10 -26,-20 -35,-33 -1,-14 -4,-27 -7,-40l126 69 5 2z"/>
  <path class="fil12" d="M4133 3615c-1,43 -24,79 -57,98l0 0 -1 1c-9,5 -18,9 -28,12l-2 0c-27,7 -57,3 -84,-15 -15,-10 -26,-20 -35,-33 -22,-31 -32,-72 -48,-131 -5,-17 -6,-35 -3,-52 12,-63 72,-105 134,-93 88,15 125,135 124,213z"/>
  <path class="fil7" d="M4050 3725c2,-1 4,-2 7,-2 -2,0 -4,1 -7,2z"/>
  <path class="fil12" d="M4049 3725c-1,-15 -1,-25 -1,-25 1,-13 2,-26 2,-26 0,1 13,42 19,42 -5,3 -8,5 -12,7 -3,0 -5,1 -7,2 0,0 -1,0 -1,0z"/>
  <path class="fil11" d="M4102 3457c-9,15 -39,28 -38,25 5,-13 4,-37 -11,-31 4,9 17,81 11,89 -3,5 -6,62 -30,113 -19,40 -19,52 -19,52l-79 15c-30,-3 -57,-41 -60,-45 -10,-18 -42,-41 -58,-54 -7,-5 -13,-13 -16,-21 -5,-15 6,-70 8,-96 4,-36 23,-71 77,-93 33,-13 61,-43 94,-55 34,-11 74,-11 103,11 14,10 42,53 18,90z"/>
  <path class="fil12" d="M4061 3509c24,8 37,43 38,66 1,25 -15,41 -37,24 -17,-13 -29,-31 -34,-51 -6,-25 9,-46 33,-39z"/>
  <path class="fil13" d="M4090 3593c0,6 -4,11 -10,11 -6,0 -11,-5 -11,-11 0,-6 5,-11 11,-11 6,0 10,5 10,11z"/>
  <path class="fil21" d="M4080 3604c-6,0 -11,-5 -11,-11 0,-6 5,-11 11,-11 6,0 10,5 10,11 0,6 -4,11 -10,11z"/>
  <path class="fil13" d="M3864 3870c0,0 18,-55 45,-73 28,-17 146,1 165,8 19,7 37,50 37,50l-247 15z"/>
  <path class="fil22" d="M3875 3844c8,-17 20,-37 34,-47 9,-5 26,-7 46,-7 45,0 106,10 119,15 11,5 23,22 30,35 -4,0 -8,-1 -13,-1 -25,-1 -51,-2 -76,-2 -4,0 -7,0 -11,0 -35,0 -70,2 -104,4 -9,1 -17,2 -25,3z"/>
  <path class="fil13" d="M4136 3846c-19,-3 -24,-5 -45,-7 -64,-3 -128,-2 -191,2 -24,2 -46,6 -68,12 -46,10 -77,53 -73,99 9,130 48,207 53,292 12,171 -16,290 -20,330l87 14c156,-4 260,-38 346,-74 0,0 -22,-206 -1,-281 60,-203 21,-235 9,-293 -9,-48 -48,-86 -97,-94z"/>
  <path class="fil23" d="M3792 4574l0 0c3,-28 18,-99 22,-200 -4,101 -19,171 -22,200zm433 -60c0,-3 -10,-95 -10,-178 0,0 0,0 0,0 0,84 10,178 10,178 0,0 0,0 0,0zm-103 -670c-6,-1 -11,-3 -18,-4 0,0 0,0 0,0 7,1 12,3 18,4z"/>
  <path class="fil24" d="M4104 3840c-4,0 -8,-1 -13,-1 -26,-1 -52,-2 -78,-2 -3,0 -6,0 -9,0 4,0 7,0 11,0 25,0 51,1 76,2 5,0 9,1 13,1 0,0 0,0 0,0z"/>
  <path class="fil6" d="M3794 4575l-2 -1c3,-29 18,-99 22,-200 2,-39 2,-82 -2,-130 -5,-85 -44,-161 -53,-292 -4,-46 27,-89 73,-99 22,-6 44,-10 68,-12 34,-2 69,-4 104,-4 3,0 6,0 9,0 26,0 52,1 78,2 5,0 9,1 13,1l0 0c7,1 12,3 18,4 1,0 1,0 2,0 -26,9 -45,31 -50,59 -1,5 -2,10 -2,14 0,37 27,70 65,77 15,2 30,4 45,7l67 128c-4,28 -13,63 -25,104 -7,24 -9,62 -9,103 0,83 10,175 10,178 0,0 0,0 0,0 0,0 0,0 0,0l-353 48 -77 10c0,0 -1,1 -1,3z"/>
  <path class="fil13" d="M4161 3840c32,5 64,11 95,16 32,6 64,13 95,20l-11 -1c14,0 26,1 34,2 4,0 6,0 5,1 0,0 -2,1 -4,2 -2,1 -6,4 -9,7 -7,8 -10,17 -10,20 0,3 1,3 1,0 0,-5 -1,-14 -3,-24l2 4c-16,-46 -31,-93 -45,-140 -14,-47 -27,-95 -36,-143 -4,-19 9,-37 27,-41 15,-3 29,4 36,16 27,42 49,86 71,129 22,44 43,89 62,134l2 4c5,14 10,29 14,49 1,10 2,22 0,37 -2,16 -11,37 -27,53 -8,8 -17,14 -25,18 -8,4 -16,7 -22,9 -13,4 -23,5 -32,6 -17,1 -30,1 -41,2l-2 0 -10 -1c-32,-3 -64,-7 -96,-11 -32,-5 -64,-9 -95,-14 -43,-8 -71,-48 -63,-91 7,-41 46,-69 87,-63z"/>
  <path class="fil11" d="M4338 4020l-3 0 -3 -1 -4 0c-25,-3 -50,-6 -75,-9 -1,-3 -2,-5 -2,-8l-83 -27 14 26c-15,-3 -30,-5 -45,-7 -38,-7 -65,-40 -65,-77 0,-4 1,-9 2,-14 6,-37 39,-64 76,-64 4,0 7,1 11,1 32,5 64,11 95,16 31,6 62,13 93,19 1,0 2,0 3,0l0 0c-6,-16 -11,-32 -17,-49 -1,-3 -2,-7 -3,-10 -8,-23 -15,-46 -21,-69 -8,-25 -15,-50 -21,-76l85 -29c12,22 23,44 34,66 22,44 43,89 62,134l2 4c5,14 10,29 14,49 0,6 1,12 1,19 0,6 0,12 -1,18 -2,16 -11,37 -27,53 -8,8 -17,14 -25,18 -8,4 -16,7 -22,9 -13,4 -23,5 -32,6 -17,1 -30,1 -41,2l-2 0zm18 -112c0,1 0,1 0,1 0,0 1,0 1,-2 0,-1 0,-2 0,-3 0,-1 0,-1 0,-2 -1,2 -1,4 -1,5 0,0 0,0 0,0 0,0 0,0 0,1zm-81 -302c0,-1 0,-2 0,-2 0,-2 -1,-3 -1,-4l1 4c1,0 1,1 1,1l-1 1z"/>
  <polygon class="fil11" points="4735,3541 5152,3528 5145,3398 4730,3425 "/>
  <polygon class="fil11" points="4421,3546 4757,3535 4752,3428 4416,3450 "/>
  <polygon class="fil14" points="4713,3538 4735,3540 4729,3426 4708,3431 "/>
  <polygon class="fil25" points="4735,3540 4713,3538 4713,3537 4708,3431 4708,3431 4729,3426 4731,3468 "/>
  <polygon class="fil14" points="4735,3541 4758,3540 4752,3424 4729,3425 "/>
  <polygon class="fil14" points="4368,3530 4402,3546 4397,3452 4366,3471 "/>
  <polygon class="fil14" points="4197,3529 4296,3524 4294,3480 4195,3486 "/>
  <path class="fil26" d="M4197 3529l-2 -43 70 -4 -8 39c-1,2 -1,4 -1,5l-59 3z"/>
  <polygon class="fil11" points="4283,3533 4393,3529 4390,3467 4280,3474 "/>
  <polygon class="fil11" points="4402,3546 4368,3530 4368,3530 4393,3529 4390,3467 4369,3468 4397,3452 "/>
  <polygon class="fil26" points="4368,3530 4366,3471 4369,3468 4390,3467 4393,3529 "/>
  <polygon class="fil11" points="4402,3547 4421,3546 4416,3450 4398,3451 "/>
  <polygon class="fil14" points="5138,3529 5203,3526 5196,3396 5131,3399 "/>
  <path class="fil11" d="M5167 3538l83 -2 2 -6c18,-49 14,-104 -10,-151l-83 6 2 4c20,48 22,100 6,149z"/>
  <path class="fil6" d="M5078 3427c-1,-5 -1,-10 0,-15l33 -2 1 15 -34 2z"/>
  <path class="fil6" d="M4765 3445l0 -13 292 -18c0,5 0,10 1,14l-293 17z"/>
  <polygon class="fil6" points="4424,3469 4423,3458 4698,3440 4698,3453 "/>
  <polygon class="fil6" points="5167,3404 5166,3390 5232,3385 5232,3400 "/>
  <path class="fil6" d="M5174 3534l-1 -15 68 -2c0,4 0,9 1,14l-68 3z"/>
  <path class="fil6" d="M4763 3536l0 -13 358 -15c-1,5 -1,10 0,15l-358 13z"/>
  <path class="fil6" d="M4430 3543l-1 -12 266 -10c0,4 0,8 0,13l-265 9z"/>
  <path class="fil6" d="M4175 3488l1 42c0,7 6,12 14,12l34 0 -1 -69 -34 1c-8,1 -14,7 -14,14z"/>
  <path class="fil12" d="M4351 3604l13 -78c0,-3 0,-7 0,-10l-4 -41c0,-6 -4,-11 -10,-13l-62 0c-8,-3 -17,1 -20,8l-11 51c-1,4 -1,8 0,12l18 71c2,5 8,10 14,11l41 1c10,2 19,-4 21,-12z"/>
  <polygon class="fil13" points="4388,3637 4281,3674 4264,3609 4355,3581 "/>
  <polygon class="fil11" points="4281,3674 4264,3609 4355,3581 4388,3637 4375,3642 4290,3671 "/>
  <path class="fil11" d="M4249 4129l-67 -128c17,2 33,4 50,7 7,1 14,1 21,2 2,13 4,28 4,46 0,20 -2,43 -8,73l0 0z"/>
  <path class="fil11" d="M4253 4010c-7,-1 -14,-1 -21,-2 -17,-3 -33,-5 -50,-7l-14 -26 83 27c0,3 1,5 2,8z"/>
  <polygon class="fil12" points="4669,5404 4652,5612 4747,5614 4773,5399 "/>
  <path class="fil11" d="M4762 5586l-108 2c-4,0 -8,3 -9,7l-18 95c-2,9 3,17 11,19l3 0c39,-2 74,-5 122,-5 58,-2 43,6 111,6 40,-1 47,-50 30,-52 -79,-9 -88,-35 -118,-64 -7,-6 -15,-9 -24,-8z"/>
  <polygon class="fil12" points="3632,6298 3594,6489 3696,6520 3745,6325 "/>
  <path class="fil11" d="M4178 4522c0,0 -145,848 -224,1098 -56,177 -207,759 -207,759l-137 -30c0,0 -15,-396 61,-600 26,-70 60,-133 69,-176 39,-185 -41,-520 -6,-770 20,-135 61,-231 61,-231l383 -50z"/>
  <path class="fil11" d="M3954 5620c-56,177 -207,759 -207,759l-137 -30c0,0 -15,-396 61,-600 26,-70 60,-133 69,-176 39,-185 -41,-520 -6,-770 20,-135 61,-231 61,-231l159 1048z"/>
  <path class="fil26" d="M4073 5071l-61 -240c50,23 85,27 103,28l-42 212z"/>
  <path class="fil11" d="M4780 5504l-134 4c0,0 10,-175 10,-430 0,-39 6,-78 15,-113 19,-78 50,-136 50,-136 0,0 -15,1 -39,2 -76,4 -544,28 -553,28 -1,0 -3,0 -5,0 -14,0 -55,0 -121,-33 -142,-69 -143,-263 -143,-263l365 -49c0,0 6,1 94,2 266,5 594,15 651,107 81,128 -190,881 -190,881z"/>
  <path class="fil11" d="M3701 6471l-112 1c-4,0 -8,4 -8,8l-14 96c-2,8 4,16 12,18l3 1c41,-2 76,-4 127,-5 59,-1 44,7 114,7 42,0 47,-50 29,-52 -83,-10 -93,-36 -126,-66 -7,-6 -16,-9 -25,-8z"/>
  <path class="fil26" d="M4671 4965c19,-78 50,-136 50,-136l0 0c0,0 -15,1 -39,2l0 0c-1,0 -2,0 -4,0l98 -9 -105 143z"/>
  <path class="fil27" d="M2289 3757c0,94 -76,170 -170,170 -94,0 -171,-76 -171,-170 0,-94 77,-171 171,-171 94,0 170,77 170,171z"/>
  <path class="fil6" d="M2119 3927c-94,0 -171,-76 -171,-170 0,-94 77,-171 171,-171 94,0 170,77 170,171 0,94 -76,170 -170,170z"/>
  <path class="fil27" d="M2119 3521c-14,0 -25,-11 -25,-25l0 -112c0,-14 11,-25 25,-25 14,0 25,11 25,25l0 112c0,14 -11,25 -25,25z"/>
  <path class="fil27" d="M2119 4152c-14,0 -25,-11 -25,-25l0 -112c0,-14 11,-26 25,-26 14,0 25,12 25,26l0 112c0,14 -11,25 -25,25z"/>
  <path class="fil27" d="M1936 3597c-7,0 -13,-2 -18,-7l-49 -49c-10,-9 -10,-25 0,-35 10,-10 26,-10 36,0l48 48c10,10 10,26 0,36 -4,5 -11,7 -17,7z"/>
  <path class="fil27" d="M2347 4009c-6,0 -13,-2 -17,-7l-46 -45c-9,-10 -9,-26 0,-36 10,-10 26,-10 36,0l45 45c10,10 10,26 0,36 -5,5 -11,7 -18,7z"/>
  <path class="fil27" d="M1860 3781l-112 0c-14,0 -26,-12 -26,-26 0,-14 12,-25 26,-25l112 0c14,0 25,11 25,25 0,14 -11,26 -25,26z"/>
  <path class="fil27" d="M2490 3781l-112 0c-14,0 -25,-12 -25,-26 0,-14 11,-25 25,-25l112 0c14,0 26,11 26,25 0,14 -12,26 -26,26z"/>
  <path class="fil27" d="M1893 4007c-7,0 -13,-3 -18,-8 -10,-10 -10,-26 0,-36l43 -42c10,-10 26,-10 35,0 10,10 10,26 0,36l-42 42c-5,5 -12,8 -18,8z"/>
  <path class="fil27" d="M2302 3597c-6,0 -13,-2 -18,-7 -9,-10 -9,-26 0,-36l46 -46c10,-10 26,-10 36,0 10,10 10,26 0,36l-46 46c-5,5 -11,7 -18,7z"/>
  <path class="fil11" d="M2119 3521c-14,0 -25,-11 -25,-25l0 -112c0,-14 11,-25 25,-25 14,0 25,11 25,25l0 112c0,14 -11,25 -25,25z"/>
  <path class="fil11" d="M2119 4152c-14,0 -25,-11 -25,-25l0 -112c0,-14 11,-26 25,-26 14,0 25,12 25,26l0 112c0,14 -11,25 -25,25z"/>
  <path class="fil11" d="M1936 3597c-7,0 -13,-2 -18,-7l-49 -49c-5,-4 -7,-11 -7,-17 0,-7 2,-13 7,-18 5,-5 12,-8 18,-8 7,0 13,3 18,8l48 48c5,5 8,11 8,18 0,6 -3,13 -8,18 -4,5 -11,7 -17,7z"/>
  <path class="fil11" d="M2347 4009c-6,0 -13,-2 -17,-7l-46 -45c-5,-5 -7,-12 -7,-18 0,-7 2,-13 7,-18 5,-5 12,-8 18,-8 7,0 13,3 18,8l45 45c5,5 8,11 8,18 0,6 -3,13 -8,18 -5,5 -11,7 -18,7z"/>
  <path class="fil11" d="M1860 3781l-112 0c-14,0 -26,-12 -26,-26 0,-14 12,-25 26,-25l112 0c14,0 25,11 25,25 0,14 -11,26 -25,26z"/>
  <path class="fil11" d="M2490 3781l-112 0c-14,0 -25,-12 -25,-26 0,-14 11,-25 25,-25l112 0c14,0 26,11 26,25 0,14 -12,26 -26,26z"/>
  <path class="fil11" d="M1893 4007c-7,0 -13,-3 -18,-8 -5,-5 -7,-11 -7,-18 0,-6 2,-13 7,-18l43 -42c5,-5 11,-8 18,-8 6,0 13,3 17,8 5,5 8,11 8,18 0,6 -3,13 -8,18l-42 42c-5,5 -12,8 -18,8z"/>
  <path class="fil11" d="M2302 3597c-6,0 -13,-2 -18,-7 -5,-5 -7,-12 -7,-18 0,-7 2,-13 7,-18l46 -46c5,-5 12,-7 18,-7 7,0 13,2 18,7 5,5 7,12 7,18 0,7 -2,13 -7,18l-46 46c-5,5 -11,7 -18,7z"/>
 </g>
</svg>
