<?xml version="1.0" encoding="UTF-8"?>
<!DOCTYPE svg PUBLIC "-//W3C//DTD SVG 1.1//EN" "http://www.w3.org/Graphics/SVG/1.1/DTD/svg11.dtd">
<!-- Creator: CorelDRAW X8 -->
<svg xmlns="http://www.w3.org/2000/svg" xml:space="preserve" width="11in" height="8.5in" version="1.1" style="shape-rendering:geometricPrecision; text-rendering:geometricPrecision; image-rendering:optimizeQuality; fill-rule:evenodd; clip-rule:evenodd"
viewBox="0 0 11000 8500"
 xmlns:xlink="http://www.w3.org/1999/xlink">
 <defs>
  <style type="text/css">
   <![CDATA[
    .fil7 {fill:black;fill-rule:nonzero}
    .fil8 {fill:#062103;fill-rule:nonzero}
    .fil4 {fill:#0A2807;fill-rule:nonzero}
    .fil6 {fill:#0A7500;fill-rule:nonzero}
    .fil9 {fill:#0A7D00;fill-rule:nonzero}
    .fil5 {fill:#0C8C00;fill-rule:nonzero}
    .fil10 {fill:#11590B;fill-rule:nonzero}
    .fil1 {fill:#277021;fill-rule:nonzero}
    .fil2 {fill:#34832D;fill-rule:nonzero}
    .fil0 {fill:#448F3D;fill-rule:nonzero}
    .fil3 {fill:#579C51;fill-rule:nonzero}
   ]]>
  </style>
 </defs>
 <g id="Layer_x0020_1">
  <metadata id="CorelCorpID_0Corel-Layer"/>
  <path class="fil0" d="M8647 4251c0,1738 -1409,3146 -3147,3146 -1738,0 -3147,-1408 -3147,-3146 0,-1738 1409,-3147 3147,-3147 1738,0 3147,1409 3147,3147z"/>
  <path class="fil1" d="M5290 3033c-19,0 -38,4 -57,12 -71,31 -104,115 -73,187 32,71 115,104 187,73 71,-32 104,-115 73,-187 -23,-53 -76,-85 -130,-85zm0 290c-57,0 -112,-33 -136,-89 -33,-75 1,-162 76,-195 76,-33 163,1 196,76 33,75 -1,163 -76,196 -20,8 -40,12 -60,12zm-177 123l123 48 23 -58c1,-2 2,-3 4,-2 21,2 43,1 65,-2 1,0 3,1 3,2l25 58 122 -53 -25 -58c-1,-1 0,-3 1,-4 17,-14 32,-29 45,-47 1,-1 2,-1 4,-1l58 23 49 -123 -59 -23c-1,-1 -2,-2 -2,-4 2,-21 2,-43 -1,-65 -1,-1 0,-3 2,-3l57 -26 -53 -121 -58 25c-1,1 -3,0 -4,-1 -13,-17 -29,-32 -46,-45 -2,-1 -2,-2 -2,-4l23 -58 -123 -49 -23 59c-1,1 -2,2 -4,2 -21,-2 -43,-2 -64,1 -2,1 -3,0 -4,-2l-25 -57 -122 53 25 58c1,1 1,3 -1,4 -16,13 -32,29 -44,46 -1,2 -3,2 -5,1l-58 -22 -48 123 58 23c2,1 3,2 2,4 -2,21 -2,43 2,64 0,2 -1,3 -2,4l-58 25 53 122 58 -26c1,0 3,0 4,1 13,17 29,32 47,45 1,1 1,3 1,4l-23 59zm125 56c0,0 -1,0 -1,0l-130 -51c-1,0 -1,-1 -2,-2 0,-1 0,-1 0,-2l23 -60c-16,-12 -31,-26 -44,-42l-58 25c-2,1 -4,0 -5,-1l-56 -128c0,-1 0,-2 0,-3 1,-1 1,-1 2,-2l58 -25c-2,-21 -3,-41 -1,-62l-59 -23c-2,0 -3,-2 -2,-4l51 -130c0,-1 1,-2 2,-2 0,0 1,0 2,0l60 23c12,-16 26,-31 42,-44l-25 -58c-1,-1 -1,-2 -1,-3 1,-1 1,-2 2,-2l128 -56c1,0 2,0 3,0 1,0 1,1 2,2l25 58c20,-3 41,-3 61,-1l24 -59c0,-2 2,-3 4,-2l130 51c1,0 2,1 2,1 0,1 0,2 0,3l-23 59c16,13 31,27 44,43l58 -26c2,0 4,0 5,2l56 128c0,1 0,2 0,2 0,1 -1,2 -2,2l-58 26c2,20 3,41 1,61l59 23c1,1 2,1 2,2 1,1 1,2 0,3l-51 130c0,2 -2,2 -4,2l-59 -23c-13,16 -27,31 -43,44l26 58c0,1 0,2 0,3 -1,1 -1,1 -2,2l-128 56c-1,0 -2,0 -3,0 0,-1 -1,-1 -1,-2l-26 -59c-20,3 -41,4 -61,2l-24 59c0,1 0,2 -1,2 -1,0 -1,0 -2,0z"/>
  <path class="fil1" d="M4526 1239l-518 0c-2,0 -4,-1 -4,-3 0,-2 2,-3 4,-3l518 0c2,0 3,1 3,3 0,2 -1,3 -3,3z"/>
  <path class="fil1" d="M3784 1239l-1095 0c-2,0 -4,-1 -4,-3 0,-2 2,-3 4,-3l1095 0c2,0 3,1 3,3 0,2 -1,3 -3,3z"/>
  <path class="fil1" d="M4356 1526l-858 0c-2,0 -3,-2 -3,-4 0,-2 1,-3 3,-3l858 0c2,0 3,1 3,3 0,2 -1,4 -3,4z"/>
  <path class="fil1" d="M3278 1526l-589 0c-2,0 -4,-2 -4,-4 0,-2 2,-3 4,-3l589 0c2,0 4,1 4,3 0,2 -2,4 -4,4z"/>
  <path class="fil1" d="M4335 1812l-617 0c-2,0 -4,-2 -4,-4 0,-1 2,-3 4,-3l617 0c2,0 3,2 3,3 0,2 -1,4 -3,4z"/>
  <path class="fil1" d="M3490 1812l-801 0c-2,0 -4,-2 -4,-4 0,-1 2,-3 4,-3l801 0c1,0 3,2 3,3 0,2 -2,4 -3,4z"/>
  <path class="fil1" d="M4526 2098l-489 0c-2,0 -4,-1 -4,-3 0,-2 2,-4 4,-4l489 0c2,0 3,2 3,4 0,2 -1,3 -3,3z"/>
  <path class="fil1" d="M3912 2098l-613 0c-2,0 -3,-1 -3,-3 0,-2 1,-4 3,-4l613 0c2,0 4,2 4,4 0,2 -2,3 -4,3z"/>
  <path class="fil1" d="M3071 2098l-382 0c-2,0 -4,-1 -4,-3 0,-2 2,-4 4,-4l382 0c2,0 4,2 4,4 0,2 -2,3 -4,3z"/>
  <polygon class="fil2" points="5910,4041 6698,4041 6698,3365 5910,3365 "/>
  <polygon class="fil3" points="5815,3946 6604,3946 6604,3271 5815,3271 "/>
  <path class="fil4" d="M7493 3367l-706 0c-2,0 -3,-1 -3,-3 0,-2 1,-4 3,-4l706 0c2,0 4,2 4,4 0,2 -2,3 -4,3z"/>
  <path class="fil4" d="M7343 3512l-556 0c-2,0 -3,-2 -3,-4 0,-2 1,-3 3,-3l556 0c2,0 4,1 4,3 0,2 -2,4 -4,4z"/>
  <path class="fil4" d="M7437 3643l-650 0c-2,0 -3,-2 -3,-4 0,-2 1,-3 3,-3l650 0c2,0 3,1 3,3 0,2 -1,4 -3,4z"/>
  <path class="fil4" d="M7234 3781l-447 0c-2,0 -3,-2 -3,-4 0,-2 1,-3 3,-3l447 0c2,0 4,1 4,3 0,2 -2,4 -4,4z"/>
  <path class="fil5" d="M6117 3475c12,-6 25,-11 38,-13l-5 -70c-22,3 -44,10 -65,20 -50,26 -87,68 -106,117l68 20c13,-31 37,-58 70,-74z"/>
  <path class="fil5" d="M6043 3659c-9,-25 -11,-50 -7,-75l-67 -19c-9,41 -6,84 11,125l63 -31z"/>
  <path class="fil6" d="M6388 3527l-63 32c25,70 -6,149 -74,184 -69,34 -151,11 -192,-51l-63 31c59,97 183,134 286,82 103,-51 148,-173 106,-278z"/>
  <path class="fil5" d="M6192 3459c46,3 90,27 116,67l63 -32c-40,-66 -111,-104 -184,-105l5 70z"/>
  <path class="fil3" d="M7892 2191c0,533 -432,965 -965,965 -533,0 -964,-432 -964,-965 0,-533 431,-965 964,-965 533,0 965,432 965,965z"/>
  <path class="fil6" d="M6927 1230c-530,0 -961,431 -961,961 0,530 431,961 961,961 530,0 962,-431 962,-961 0,-530 -432,-961 -962,-961zm0 1929c-258,0 -501,-101 -684,-283 -183,-183 -284,-426 -284,-685 0,-259 101,-502 284,-685 183,-183 426,-283 684,-283 259,0 502,100 685,283 183,183 284,426 284,685 0,259 -101,502 -284,685 -183,182 -426,283 -685,283z"/>
  <path class="fil2" d="M6927 2622c-238,0 -431,-193 -431,-431 0,-238 193,-431 431,-431 238,0 432,193 432,431 0,238 -194,431 -432,431zm0 -1150c-397,0 -718,322 -718,719 0,397 321,719 718,719 397,0 719,-322 719,-719 0,-397 -322,-719 -719,-719z"/>
  <path class="fil6" d="M7120 2191c0,107 -86,193 -193,193 -106,0 -193,-86 -193,-193 0,-107 87,-193 193,-193 107,0 193,86 193,193z"/>
  <polygon class="fil4" points="7746,1446 7282,1894 7229,1839 7693,1391 "/>
  <polygon class="fil7" points="7225,1929 6921,2189 7192,1895 "/>
  <polygon class="fil5" points="7916,1232 7741,1400 7711,1271 7885,1103 "/>
  <polygon class="fil6" points="7931,1248 7756,1416 7884,1451 8059,1283 "/>
  <polygon class="fil3" points="7270,1928 7246,1951 7171,1873 7194,1850 "/>
  <polygon class="fil3" points="7293,1905 7270,1928 7194,1850 7218,1827 "/>
  <path class="fil5" d="M5121 4560c-5,128 -73,179 -174,203l0 0c-12,-153 149,-224 149,-224l25 21z"/>
  <path class="fil5" d="M4826 4310c-125,26 -164,101 -172,205l0 0c153,-13 197,-184 197,-184l-25 -21z"/>
  <path class="fil5" d="M4835 4449c0,0 -163,86 -107,299 0,0 29,-43 91,-49 91,-10 140,-58 160,-128l-144 -122z"/>
  <path class="fil7" d="M4731 4932c0,0 -1,-1 -2,-1 -1,-1 -1,-3 0,-5l162 -191c1,-2 3,-2 5,-1 1,2 1,4 0,5l-162 192c-1,0 -2,1 -3,1z"/>
  <path class="fil7" d="M4849 4879c-1,0 -1,0 -2,-1 -2,-1 -2,-3 0,-5l63 -75c1,-1 3,-1 5,0 1,1 2,3 0,5l-63 75c-1,1 -2,1 -3,1z"/>
  <path class="fil7" d="M4590 4686c-1,0 -1,0 -2,-1 -1,-1 -2,-3 0,-5l109 -129c1,-1 3,-1 5,0 1,1 1,3 0,5l-109 129c-1,1 -2,1 -3,1z"/>
  <path class="fil7" d="M4626 4594c-1,0 -2,0 -2,0 -2,-2 -2,-4 -1,-5l44 -52c1,-2 4,-2 5,-1 2,2 2,4 1,5l-45 52c0,1 -1,1 -2,1z"/>
  <path class="fil7" d="M4550 4908c-1,0 -1,0 -2,0 -1,-2 -2,-4 0,-5l145 -172c1,-1 3,-1 5,0 1,1 1,3 0,5l-145 171c-1,1 -2,1 -3,1z"/>
  <path class="fil7" d="M4566 4835c-1,0 -2,0 -2,0 -2,-2 -2,-4 -1,-5l76 -89c1,-2 3,-2 4,-1 2,1 2,4 1,5l-76 89c0,1 -1,1 -2,1z"/>
  <polygon class="fil6" points="5037,4558 4854,4403 4899,4351 5082,4506 "/>
  <path class="fil6" d="M5514 4027l0 0c33,-97 40,-162 26,-248l0 0c-100,-1 -150,18 -241,66l0 0 108 91 107 91 0 0z"/>
  <path class="fil6" d="M5487 4080l4 -10 -230 -195 -9 6c-139,87 -301,239 -407,364l-21 25 350 296 21 -25c106,-125 229,-310 292,-461z"/>
  <path class="fil3" d="M5321 4264c-52,62 -144,69 -206,17 -62,-52 -69,-145 -17,-206 52,-62 144,-69 206,-17 62,52 69,144 17,206z"/>
  <path class="fil7" d="M5290 4237l0 0 0 0zm-80 -169c-29,0 -58,12 -78,36 -37,42 -31,107 12,143 42,36 107,31 143,-12 36,-43 31,-107 -12,-143 -19,-17 -42,-24 -65,-24zm-1 210c-24,0 -49,-8 -70,-26 -46,-38 -51,-107 -13,-153 39,-46 108,-51 154,-13 45,39 51,108 12,154l0 0c-21,25 -52,38 -83,38z"/>
  <path class="fil1" d="M5507 4055c-1,0 -2,0 -3,-1l-230 -195c-1,-1 -1,-3 0,-4 1,-2 3,-2 5,-1l230 195c1,1 2,4 0,5 0,1 -1,1 -2,1z"/>
  <polygon class="fil6" points="7828,7162 8313,7162 8313,3174 7828,3174 "/>
  <polygon class="fil6" points="7100,7162 7585,7162 7585,3898 7100,3898 "/>
  <polygon class="fil4" points="6342,7174 6827,7174 6827,4816 6342,4816 "/>
  <polygon class="fil4" points="5583,7174 6069,7174 6069,4532 5583,4532 "/>
  <polygon class="fil1" points="4818,7162 5303,7162 5303,5316 4818,5316 "/>
  <polygon class="fil1" points="4090,7162 4575,7162 4575,5637 4090,5637 "/>
  <polygon class="fil6" points="8409,3326 7715,3326 8068,2837 "/>
  <polygon class="fil8" points="7947,7234 6227,7248 6217,6020 7937,6005 "/>
  <path class="fil8" d="M7269 5738c-1,0 -1,0 -1,0l-408 3c-21,1 -41,9 -56,24 -15,15 -23,35 -23,57l2 243c1,44 36,79 80,79 0,0 0,0 1,0l407 -3c22,0 41,-9 56,-24 15,-15 23,-35 23,-56l-2 -244c0,-44 -36,-79 -79,-79zm2 406l0 0 0 0zm-408 7c-23,0 -45,-9 -61,-25 -16,-16 -25,-37 -26,-61l-2 -243c0,-23 9,-45 25,-62 16,-16 38,-25 61,-26l408 -3c23,0 45,9 61,25 17,16 26,38 26,61l2 244c0,23 -9,45 -25,61 -16,17 -38,26 -61,26l0 0 -407 3c-1,0 -1,0 -1,0z"/>
  <path class="fil7" d="M7080 6709c-1,0 -2,-1 -2,-1l-761 -575c-2,-1 -2,-3 -1,-5 1,-1 3,-1 5,0l759 573 741 -586c2,-1 4,-1 5,0 1,2 1,4 -1,5l-743 588c-1,0 -2,1 -2,1z"/>
  <polygon class="fil5" points="7204,6754 6962,6756 6961,6628 7203,6626 "/>
  <path class="fil9" d="M8419 7236c0,78 -201,141 -448,141 -248,0 -449,-63 -449,-141 0,-79 201,-142 449,-142 247,0 448,63 448,142z"/>
  <polygon class="fil9" points="7522,7240 8419,7240 8419,7094 7522,7094 "/>
  <path class="fil5" d="M8419 7097c0,78 -201,142 -448,142 -248,0 -449,-64 -449,-142 0,-79 201,-142 449,-142 247,0 448,63 448,142z"/>
  <path class="fil3" d="M8023 6958c-119,0 -231,15 -316,42 -82,26 -129,61 -129,97 0,36 47,71 129,97 85,27 197,41 316,41 120,0 232,-14 316,-41 82,-26 129,-61 129,-97 0,-36 -47,-71 -129,-97 -84,-27 -196,-42 -316,-42zm0 284c-120,0 -233,-15 -318,-41 -86,-28 -133,-65 -133,-104 0,-40 47,-76 133,-104 85,-27 198,-42 318,-42 120,0 233,15 318,42 87,28 134,64 134,104 0,39 -47,76 -134,104 -85,26 -198,41 -318,41z"/>
  <path class="fil9" d="M8511 7004c0,79 -201,142 -448,142 -248,0 -448,-63 -448,-142 0,-78 200,-141 448,-141 247,0 448,63 448,141z"/>
  <polygon class="fil9" points="7615,7009 8511,7009 8511,6863 7615,6863 "/>
  <path class="fil5" d="M8511 6866c0,78 -201,142 -448,142 -248,0 -448,-64 -448,-142 0,-79 200,-142 448,-142 247,0 448,63 448,142z"/>
  <path class="fil3" d="M8116 6727c-120,0 -232,15 -316,42 -82,26 -129,61 -129,97 0,36 47,71 129,97 84,27 196,41 316,41 119,0 231,-14 316,-41 82,-26 129,-61 129,-97 0,-36 -47,-71 -129,-97 -85,-27 -197,-42 -316,-42zm0 284c-120,0 -233,-15 -318,-42 -87,-27 -134,-64 -134,-103 0,-40 47,-77 134,-104 85,-27 198,-42 318,-42 120,0 233,15 318,42 86,27 133,64 133,104 0,39 -47,76 -133,103 -85,27 -198,42 -318,42z"/>
  <path class="fil9" d="M8103 6911c-56,55 -242,-42 -417,-218 -174,-176 -270,-364 -214,-419 55,-55 242,43 416,219 174,176 270,363 215,418z"/>
  <polygon class="fil9" points="8099,6915 7468,6278 7572,6175 8203,6812 "/>
  <path class="fil5" d="M8201 6814c-55,55 -242,-43 -416,-219 -174,-176 -270,-363 -215,-418 56,-55 242,42 417,218 174,176 270,364 214,419z"/>
  <path class="fil3" d="M8238 6851l0 0 0 0zm-586 -649c-18,0 -33,5 -42,15 -26,25 -18,83 22,160 40,78 108,168 192,253 84,85 174,154 252,196 76,39 135,48 160,23 25,-25 17,-84 -22,-160 -40,-79 -109,-169 -193,-254 -84,-85 -173,-154 -251,-195 -48,-25 -88,-38 -118,-38zm542 668c-31,0 -72,-13 -121,-38 -79,-42 -169,-112 -253,-197 -85,-85 -154,-176 -195,-255 -41,-81 -48,-140 -20,-168 28,-28 88,-20 168,22 79,41 169,111 253,196 85,86 154,176 194,256 42,80 49,140 21,168l0 0c-11,11 -27,16 -47,16z"/>
  <polygon class="fil2" points="4178,2685 5551,2685 5551,1508 4178,1508 "/>
  <polygon class="fil3" points="4013,2521 5387,2521 5387,1344 4013,1344 "/>
  <path class="fil4" d="M4596 1686c25,-11 50,-18 75,-21l-2 -136c-42,4 -85,15 -126,33 -101,43 -176,121 -218,213l128 46c29,-58 78,-107 143,-135z"/>
  <path class="fil4" d="M4433 2032c-14,-48 -15,-98 -4,-144l-128 -46c-21,78 -20,163 7,243l125 -53z"/>
  <path class="fil6" d="M5112 1816l-125 54c41,138 -27,288 -163,346 -135,58 -290,5 -363,-119l-124 54c102,192 337,277 541,189 204,-88 303,-317 234,-524z"/>
  <path class="fil5" d="M4742 1664c89,10 170,61 217,141l125 -54c-70,-131 -202,-212 -344,-223l2 136z"/>
  <polygon class="fil10" points="3734,6952 3333,6873 3508,6363 3897,6504 "/>
  <path class="fil7" d="M4200 7378l-1021 -280 201 -365 400 110 265 168c131,77 195,227 155,367l0 0z"/>
  <polygon class="fil10" points="2915,7025 2501,7050 2539,6512 2958,6550 "/>
  <path class="fil7" d="M3472 7307l-1058 0 97 -404 415 0 299 91c147,40 248,168 247,313l0 0z"/>
  <path class="fil7" d="M2768 4064c-44,115 -75,245 -117,384 -221,733 -190,2284 -190,2284l547 -13c0,0 203,-901 294,-1567 74,177 214,466 214,466 0,0 -91,670 -136,880 181,70 360,107 582,168 265,-891 322,-1015 211,-1352 -143,-435 -504,-1224 -625,-1393 -260,48 -520,95 -780,143z"/>
  <path class="fil10" d="M4008 3426c0,0 231,-267 363,-401 140,-139 366,-326 391,-294 15,18 -11,50 -85,131 8,-1 31,3 42,22 16,28 -3,49 -4,51 3,0 32,-3 45,14 16,19 15,41 6,58 7,0 31,0 44,17 13,17 14,45 -2,61 -30,29 -120,114 -159,160 -77,92 -305,455 -451,558 -43,-149 -190,-377 -190,-377z"/>
  <path class="fil7" d="M4704 3158c-11,0 -23,-4 -31,-11 -12,-10 -15,-24 -9,-36 -16,3 -34,-1 -45,-11 -12,-11 -16,-26 -10,-40 -17,4 -36,0 -48,-11 -8,-7 -12,-16 -13,-26 0,-8 3,-15 8,-21 -8,-2 -15,-5 -20,-10 -8,-7 -12,-16 -11,-25 0,-9 5,-18 14,-24l99 -63c1,-1 3,0 5,1 1,2 0,4 -2,5l-98 63c-7,5 -11,11 -11,19 -1,7 2,13 8,19 6,5 14,8 23,9 2,0 3,1 3,2 1,1 0,3 -1,4 -6,5 -10,13 -10,21 0,7 4,15 11,21 12,10 32,14 49,8 1,-1 3,0 3,1 1,1 1,3 0,4 -9,12 -7,27 5,37 12,11 31,14 47,9 2,-1 3,0 4,1 1,1 1,3 0,4 -9,11 -7,24 3,34 14,11 37,12 52,2l66 -55c2,-1 4,-1 5,0 1,2 1,4 0,5l-67 55c-8,6 -19,9 -29,9z"/>
  <path class="fil3" d="M3439 3169l468 161c49,19 105,7 142,-29l228 -221 293 332 -307 352c-106,122 -273,170 -427,122l-369 -115 -28 -602z"/>
  <path class="fil3" d="M2668 3543c45,-158 197,-405 518,-435 273,-25 472,205 540,464 47,179 23,442 48,639 -245,37 -1185,167 -1185,167 0,0 6,-572 79,-835z"/>
  <path class="fil7" d="M3714 4118c-2,0 -3,-1 -3,-3 -55,-330 -219,-717 -220,-720 -1,-2 0,-4 2,-5 1,-1 3,0 4,2 2,4 165,391 220,722 1,2 -1,4 -3,4 0,0 0,0 0,0z"/>
  <path class="fil3" d="M3325 3788c178,671 13,621 -103,648 -94,22 -244,-261 -321,-546l424 -102z"/>
  <polygon class="fil7" points="3355,3360 3373,3231 3248,3266 3331,3366 3425,3916 3519,3986 3563,3877 "/>
  <polygon class="fil5" points="3908,4749 3046,4548 3302,3447 4165,3648 "/>
  <path class="fil7" d="M3842 3777c0,0 0,0 -1,0l-336 -78c-2,0 -3,-2 -2,-4 0,-2 2,-3 4,-3l336 79c2,0 3,2 2,4 0,1 -1,2 -3,2z"/>
  <path class="fil7" d="M3806 3932c0,0 0,0 -1,0l-336 -78c-2,-1 -3,-2 -2,-4 0,-2 2,-3 4,-3l336 78c2,1 3,3 2,5 0,1 -1,2 -3,2z"/>
  <path class="fil7" d="M3785 3846c0,0 0,0 0,0l-259 -61c-2,0 -3,-2 -3,-4 1,-2 3,-3 4,-2l259 60c2,0 3,2 3,4 -1,2 -2,3 -4,3z"/>
  <polygon class="fil3" points="2743,3791 2959,4342 3328,4060 3154,3509 "/>
  <path class="fil10" d="M3278 4050c176,-36 575,-118 615,-127 76,-16 442,-90 456,-38 16,57 -176,75 -207,85 39,-2 240,-55 249,-12 11,53 -239,107 -241,108 28,-5 225,-55 235,-13 14,55 -202,93 -236,100 3,4 147,-44 160,1 13,47 -157,77 -179,87 -58,25 -168,54 -292,95 -291,94 -424,157 -574,144 -67,-6 -142,-84 -207,-199 81,-98 141,-132 221,-231z"/>
  <path class="fil3" d="M3715 4412c0,0 -537,147 -700,40 -94,-61 -155,-316 -155,-316l763 -162 92 438z"/>
  <path class="fil7" d="M2929 4335c-2,0 -3,-1 -4,-2l-185 -470c0,-2 1,-4 2,-4 2,-1 4,0 5,2l185 469c1,2 0,4 -2,5 -1,0 -1,0 -1,0z"/>
  <path class="fil7" d="M3134 4050c-1,0 -3,-1 -3,-3 0,-1 1,-3 3,-3l488 -73c2,0 4,1 4,3 0,2 -1,4 -3,4l-488 72c0,0 -1,0 -1,0z"/>
  <path class="fil7" d="M3311 4018c-2,0 -3,-2 -3,-3l-96 -378c-1,-2 0,-4 2,-5 2,0 4,1 4,3l96 378c1,2 0,4 -2,4 0,0 -1,1 -1,1z"/>
  <path class="fil7" d="M4089 3976c-1,0 -3,-1 -3,-2 0,-2 1,-4 3,-4l199 -32c1,0 3,1 4,3 0,2 -1,4 -3,4l-199 31c0,0 0,0 -1,0z"/>
  <path class="fil7" d="M4109 4070c-2,0 -4,-2 -4,-3 0,-2 1,-4 3,-4l175 -31c2,0 4,1 4,3 1,2 -1,4 -2,4l-176 31c0,0 0,0 0,0z"/>
  <path class="fil7" d="M4124 4161c-2,0 -3,-1 -4,-2 0,-2 1,-4 3,-4l130 -25c2,0 4,1 4,3 1,2 -1,3 -3,4l-130 24c0,0 0,0 0,0z"/>
  <path class="fil10" d="M3924 3982c87,-74 103,-119 91,-133 -20,-22 -126,13 -267,104 47,13 129,16 176,29z"/>
  <path class="fil7" d="M3893 3927c-1,0 -3,-1 -3,-3 0,-2 1,-4 3,-4 15,-3 56,-12 109,-22 2,0 4,1 4,3 0,2 -1,4 -3,4 -53,10 -94,18 -109,22 0,0 0,0 -1,0z"/>
  <path class="fil10" d="M3366 3011c-52,37 -200,-52 -200,-52l-91 -189c0,-90 82,-170 172,-170l0 0c90,0 163,73 163,164 0,0 10,209 -44,247z"/>
  <polygon class="fil10" points="3074,3133 3306,3241 3306,2768 3074,2768 "/>
  <path class="fil3" d="M3228 2788c0,0 29,-16 66,-16 7,0 -7,61 -15,58 -32,-15 -51,-42 -51,-42z"/>
  <path class="fil7" d="M3317 2774c46,11 76,51 76,51 0,0 -44,23 -90,13 -8,-2 -16,-5 -24,-8 -5,-20 0,-42 15,-58 7,0 15,1 23,2z"/>
  <path class="fil7" d="M3365 2640c5,-25 -51,-71 -113,-78 -77,-9 -168,16 -216,102 -47,84 -46,193 38,280 21,-17 39,-30 64,-51 -42,-43 -45,-88 -27,-108 15,-17 44,-19 75,7 10,-24 25,-60 70,-93 53,-38 104,-39 109,-59z"/>
  <path class="fil7" d="M3303 3025c0,0 0,0 0,0 -82,-21 -135,-62 -136,-63 -1,-1 -2,-3 -1,-5 2,-1 4,-1 5,0 1,0 53,41 133,61 2,0 3,2 3,4 -1,2 -2,3 -4,3z"/>
  <path class="fil7" d="M3348 2928c-6,0 -13,-2 -18,-7 -10,-11 -6,-25 -6,-25 1,-2 2,-3 4,-3 2,1 3,3 3,4 0,0 -3,11 4,19 6,6 15,7 23,3 2,-1 4,0 5,1 1,2 0,4 -2,5 -4,2 -8,3 -13,3z"/>
  <path class="fil10" d="M3409 2811c-1,8 0,19 5,30 6,14 19,22 19,30 0,6 -7,15 -30,20l6 -80z"/>
  <path class="fil7" d="M3152 2873c-1,0 -2,-1 -3,-2 -21,-26 -29,-54 -17,-65 10,-10 33,0 40,4 2,0 3,3 2,4 -1,2 -3,3 -5,2 -8,-4 -26,-11 -33,-5 -6,6 -3,29 18,56 2,1 1,4 0,5 -1,0 -2,1 -2,1z"/>
 </g>
</svg>
