<?xml version="1.0" encoding="UTF-8"?>
<!DOCTYPE svg PUBLIC "-//W3C//DTD SVG 1.1//EN" "http://www.w3.org/Graphics/SVG/1.1/DTD/svg11.dtd">
<!-- Creator: CorelDRAW X8 -->
<svg xmlns="http://www.w3.org/2000/svg" xml:space="preserve" width="8.5in" height="11in" version="1.1" style="shape-rendering:geometricPrecision; text-rendering:geometricPrecision; image-rendering:optimizeQuality; fill-rule:evenodd; clip-rule:evenodd"
viewBox="0 0 8500 11000"
 xmlns:xlink="http://www.w3.org/1999/xlink">
 <defs>
  <style type="text/css">
   <![CDATA[
    .fil6 {fill:#228C22;fill-rule:nonzero}
    .fil8 {fill:#363E44;fill-rule:nonzero}
    .fil2 {fill:#37CF37;fill-rule:nonzero}
    .fil9 {fill:#84524D;fill-rule:nonzero}
    .fil5 {fill:#89E389;fill-rule:nonzero}
    .fil4 {fill:#8B865C;fill-rule:nonzero}
    .fil11 {fill:#BC8271;fill-rule:nonzero}
    .fil1 {fill:#D3BBA3;fill-rule:nonzero}
    .fil7 {fill:#D87355;fill-rule:nonzero}
    .fil0 {fill:#EDEDEB;fill-rule:nonzero}
    .fil10 {fill:#EFBC73;fill-rule:nonzero}
    .fil3 {fill:white;fill-rule:nonzero}
   ]]>
  </style>
 </defs>
 <g id="Layer_x0020_1">
  <metadata id="CorelCorpID_0Corel-Layer"/>
  <path class="fil0" d="M7563 5242c0,1768 -1432,3200 -3200,3200 -1767,0 -3200,-1432 -3200,-3200 0,-1767 1433,-3200 3200,-3200 1768,0 3200,1433 3200,3200z"/>
  <path class="fil1" d="M4150 4004c-20,0 -39,4 -58,12 -73,32 -106,117 -74,190 32,73 117,106 190,74 72,-32 106,-117 74,-190 -24,-54 -77,-86 -132,-86zm0 295c-58,0 -114,-34 -139,-90 -33,-77 2,-166 78,-199 76,-34 166,1 199,78 34,76 -1,165 -78,199 -19,8 -40,12 -60,12zm-181 125l126 49 23 -60c1,-1 2,-2 4,-2 22,3 44,2 66,-1 1,0 3,1 4,2l25 59 124 -55 -26 -58c0,-2 0,-3 1,-4 17,-14 33,-30 46,-48 1,-1 2,-1 4,-1l59 23 50 -125 -60 -23c-1,-1 -2,-3 -2,-4 2,-22 2,-44 -1,-66 -1,-2 0,-3 2,-4l58 -25 -54 -124 -58 26c-2,0 -4,0 -5,-1 -13,-17 -29,-33 -47,-46 -1,-1 -2,-3 -1,-4l23 -60 -126 -49 -23 60c0,1 -2,2 -4,2 -21,-2 -44,-2 -65,1 -2,1 -4,0 -4,-2l-26 -58 -123 54 25 58c1,2 1,3 -1,4 -17,14 -32,30 -45,48 -1,1 -3,2 -4,1l-60 -23 -49 125 59 24c2,0 3,2 3,3 -3,22 -2,44 1,66 0,2 -1,3 -2,4l-59 26 54 123 59 -25c1,-1 3,-1 4,1 14,17 30,32 48,45 1,1 1,3 1,4l-24 60zm128 57c0,0 -1,0 -1,0l-132 -52c-1,0 -2,-1 -2,-2 -1,-1 -1,-2 0,-2l23 -61c-16,-12 -31,-27 -45,-43l-59 26c-2,1 -4,0 -5,-2l-57 -130c0,-1 0,-2 0,-2 1,-1 1,-2 2,-2l60 -26c-3,-21 -4,-42 -2,-63l-60 -23c-2,-1 -3,-3 -2,-5l52 -132c0,-1 1,-2 2,-2 0,0 1,0 2,0l61 24c12,-17 27,-32 43,-45l-26 -60c-1,-1 -1,-1 0,-2 0,-1 1,-2 2,-2l130 -57c0,-1 1,-1 2,0 1,0 2,1 2,2l26 59c21,-3 42,-3 63,-1l23 -61c1,-1 3,-2 5,-2l132 52c1,0 1,1 2,2 0,1 0,2 0,3l-24 60c17,13 32,27 45,43l59 -26c2,-1 4,0 5,2l57 130c0,1 0,2 0,3 0,1 -1,1 -2,2l-59 26c3,20 3,41 1,62l60 24c1,0 2,1 2,1 1,1 1,2 0,3l-51 132c-1,2 -3,3 -5,2l-60 -23c-13,16 -27,31 -43,45l26 59c0,1 0,2 0,3 -1,0 -1,1 -2,1l-130 57c-1,1 -2,1 -3,0 -1,0 -1,-1 -2,-1l-26 -60c-20,3 -41,3 -62,1l-24 61c0,1 -1,1 -2,2 0,0 0,0 -1,0z"/>
  <path class="fil1" d="M3372 2180l-526 0c-2,0 -4,-2 -4,-4 0,-2 2,-3 4,-3l526 0c2,0 4,1 4,3 0,2 -2,4 -4,4z"/>
  <path class="fil1" d="M2618 2180l-1114 0c-2,0 -3,-2 -3,-4 0,-2 1,-3 3,-3l1114 0c2,0 4,1 4,3 0,2 -2,4 -4,4z"/>
  <path class="fil1" d="M3200 2471l-873 0c-2,0 -3,-2 -3,-4 0,-1 1,-3 3,-3l873 0c2,0 3,2 3,3 0,2 -1,4 -3,4z"/>
  <path class="fil1" d="M2104 2471l-600 0c-2,0 -3,-2 -3,-4 0,-1 1,-3 3,-3l600 0c2,0 3,2 3,3 0,2 -1,4 -3,4z"/>
  <path class="fil1" d="M3178 2762l-628 0c-1,0 -3,-2 -3,-3 0,-2 2,-4 3,-4l628 0c2,0 4,2 4,4 0,1 -2,3 -4,3z"/>
  <path class="fil1" d="M2319 2762l-815 0c-2,0 -3,-2 -3,-3 0,-2 1,-4 3,-4l815 0c2,0 3,2 3,4 0,1 -1,3 -3,3z"/>
  <path class="fil1" d="M3372 3053l-497 0c-2,0 -3,-1 -3,-3 0,-2 1,-4 3,-4l497 0c2,0 4,2 4,4 0,2 -2,3 -4,3z"/>
  <path class="fil1" d="M2749 3053l-624 0c-2,0 -4,-1 -4,-3 0,-2 2,-4 4,-4l624 0c2,0 3,2 3,4 0,2 -1,3 -3,3z"/>
  <path class="fil1" d="M1893 3053l-389 0c-2,0 -3,-1 -3,-3 0,-2 1,-4 3,-4l389 0c2,0 4,2 4,4 0,2 -2,3 -4,3z"/>
  <polygon class="fil2" points="4780,5029 5582,5029 5582,4342 4780,4342 "/>
  <polygon class="fil3" points="4684,4933 5486,4933 5486,4246 4684,4246 "/>
  <path class="fil4" d="M6390 4344l-718 0c-2,0 -3,-2 -3,-4 0,-2 1,-3 3,-3l718 0c2,0 4,1 4,3 0,2 -2,4 -4,4z"/>
  <path class="fil4" d="M6238 4491l-566 0c-2,0 -3,-2 -3,-4 0,-2 1,-3 3,-3l566 0c2,0 3,1 3,3 0,2 -1,4 -3,4z"/>
  <path class="fil4" d="M6333 4624l-661 0c-2,0 -3,-2 -3,-3 0,-2 1,-4 3,-4l661 0c2,0 4,2 4,4 0,1 -2,3 -4,3z"/>
  <path class="fil4" d="M6127 4764l-455 0c-2,0 -3,-1 -3,-3 0,-2 1,-4 3,-4l455 0c2,0 3,2 3,4 0,2 -1,3 -3,3z"/>
  <path class="fil5" d="M4991 4453c12,-6 25,-10 38,-13l-5 -71c-22,3 -44,10 -65,21 -52,25 -89,69 -109,119l69 20c14,-32 38,-59 72,-76z"/>
  <path class="fil6" d="M4915 4640c-9,-25 -11,-51 -7,-75l-68 -21c-9,42 -6,86 11,128l64 -32z"/>
  <path class="fil6" d="M5266 4507l-64 32c25,71 -6,152 -75,186 -70,35 -153,12 -195,-51l-64 32c60,98 186,135 291,83 104,-52 150,-176 107,-282z"/>
  <path class="fil2" d="M5067 4437c47,3 91,27 118,68l64 -32c-41,-67 -112,-106 -187,-107l5 71z"/>
  <path class="fil5" d="M6796 3148c0,541 -439,981 -981,981 -542,0 -981,-440 -981,-981 0,-542 439,-982 981,-982 542,0 981,440 981,982z"/>
  <path class="fil7" d="M5815 2170c-539,0 -978,438 -978,978 0,539 439,977 978,977 539,0 977,-438 977,-977 0,-540 -438,-978 -977,-978zm0 1962c-263,0 -511,-102 -696,-288 -186,-186 -289,-433 -289,-696 0,-263 103,-511 289,-697 185,-186 433,-288 696,-288 263,0 510,102 696,288 186,186 288,434 288,697 0,263 -102,510 -288,696 -186,186 -433,288 -696,288z"/>
  <path class="fil2" d="M5815 3586c-242,0 -439,-196 -439,-438 0,-243 197,-439 439,-439 242,0 438,196 438,439 0,242 -196,438 -438,438zm0 -1169c-404,0 -731,327 -731,731 0,403 327,730 731,730 403,0 731,-327 731,-730 0,-404 -328,-731 -731,-731z"/>
  <path class="fil6" d="M6011 3148c0,108 -88,196 -196,196 -109,0 -197,-88 -197,-196 0,-109 88,-197 197,-197 108,0 196,88 196,197z"/>
  <polygon class="fil4" points="6648,2390 6176,2845 6122,2789 6594,2334 "/>
  <polygon class="fil8" points="6117,2881 5808,3146 6084,2847 "/>
  <polygon class="fil2" points="6820,2172 6642,2343 6611,2212 6789,2041 "/>
  <polygon class="fil5" points="6836,2188 6658,2360 6788,2395 6966,2224 "/>
  <polygon class="fil3" points="6163,2880 6139,2904 6062,2824 6086,2801 "/>
  <polygon class="fil3" points="6187,2857 6163,2880 6086,2801 6110,2778 "/>
  <path class="fil5" d="M3978 5557c-5,130 -74,182 -177,207l0 0c-13,-156 151,-229 151,-229l26 22z"/>
  <path class="fil5" d="M3678 5303c-127,26 -168,103 -175,208l0 0c155,-13 200,-187 200,-187l-25 -21z"/>
  <path class="fil5" d="M3687 5444c0,0 -166,88 -109,304 0,0 30,-43 92,-50 93,-10 143,-59 163,-130l-146 -124z"/>
  <path class="fil8" d="M3582 5935c-1,0 -2,0 -3,-1 -1,-1 -1,-3 0,-5l165 -194c1,-2 3,-2 5,-1 1,1 1,4 0,5l-165 195c0,0 -1,1 -2,1z"/>
  <path class="fil8" d="M3701 5881c0,0 -1,0 -2,-1 -1,-1 -2,-3 0,-4l64 -77c1,-1 4,-1 5,0 2,1 2,3 1,5l-65 76c-1,1 -2,1 -3,1z"/>
  <path class="fil8" d="M3438 5685c-1,0 -2,0 -2,-1 -2,-1 -2,-3 -1,-5l111 -131c2,-1 4,-2 5,0 2,1 2,3 1,5l-111 131c-1,1 -2,1 -3,1z"/>
  <path class="fil8" d="M3474 5592c-1,0 -1,0 -2,-1 -2,-1 -2,-3 0,-5l44 -53c2,-1 4,-2 5,0 2,1 2,3 1,5l-45 53c-1,0 -2,1 -3,1z"/>
  <path class="fil8" d="M3397 5911c-1,0 -1,0 -2,-1 -1,-1 -2,-3 0,-5l147 -174c2,-1 4,-2 5,0 2,1 2,3 1,5l-148 174c-1,1 -2,1 -3,1z"/>
  <path class="fil8" d="M3413 5837c-1,0 -1,0 -2,-1 -2,-1 -2,-3 -1,-5l77 -90c1,-2 4,-2 5,-1 2,1 2,4 1,5l-77 91c-1,0 -2,1 -3,1z"/>
  <polygon class="fil5" points="3892,5555 3706,5398 3752,5344 3938,5501 "/>
  <path class="fil5" d="M4378 5015l0 0c33,-99 40,-165 26,-252l0 0c-102,-2 -152,18 -245,67l0 0 109 93 110 92 0 0z"/>
  <path class="fil5" d="M4350 5069l4 -10 -234 -199 -9 6c-141,89 -306,243 -414,370l-21 26 355 301 22 -25c108,-128 233,-316 297,-469z"/>
  <path class="fil3" d="M4181 5256c-53,62 -147,70 -209,17 -63,-53 -71,-147 -18,-210 53,-62 147,-70 210,-17 63,53 70,147 17,210z"/>
  <path class="fil8" d="M4149 5229l0 0 0 0zm-81 -173c-30,0 -59,12 -79,37 -37,43 -32,109 12,146 43,37 109,31 146,-12 37,-44 31,-110 -12,-147 -20,-16 -44,-24 -67,-24zm0 214c-26,0 -51,-9 -72,-26 -46,-40 -52,-109 -13,-156 40,-46 110,-52 156,-13 47,40 52,109 13,156l0 0c-22,26 -53,39 -84,39z"/>
  <path class="fil1" d="M4370 5044c-1,0 -2,-1 -2,-1l-234 -199c-2,-1 -2,-3 -1,-5 1,-1 4,-1 5,0l234 198c2,2 2,4 1,5 -1,1 -2,2 -3,2z"/>
  <polygon class="fil2" points="6731,8203 7224,8203 7224,4147 6731,4147 "/>
  <polygon class="fil2" points="5990,8203 6484,8203 6484,4884 5990,4884 "/>
  <polygon class="fil2" points="5219,8215 5713,8215 5713,5817 5219,5817 "/>
  <polygon class="fil2" points="4448,8215 4942,8215 4942,5528 4448,5528 "/>
  <polygon class="fil2" points="3669,8203 4163,8203 4163,6326 3669,6326 "/>
  <polygon class="fil2" points="2929,8203 3423,8203 3423,6653 2929,6653 "/>
  <polygon class="fil2" points="7322,4302 6616,4302 6974,3804 "/>
  <polygon class="fil5" points="6852,8277 5103,8291 5092,7041 6842,7027 "/>
  <path class="fil9" d="M6162 6755c0,0 -1,0 -1,0l-414 3c-22,0 -42,9 -58,24 -15,16 -23,36 -23,58l2 248c1,44 37,80 81,80 0,0 1,0 1,0l415 -3c21,0 41,-9 57,-24 15,-16 23,-36 23,-58l-2 -248c-1,-44 -37,-80 -81,-80zm3 413l0 0 0 0zm-416 7c-23,0 -45,-9 -61,-25 -17,-17 -27,-39 -27,-62l-2 -248c0,-24 9,-46 25,-62 17,-17 39,-27 62,-27l415 -3c23,0 46,9 63,25 16,17 26,39 26,62l2 248c0,24 -9,46 -25,62 -17,17 -39,27 -62,27l0 0 -415 3c0,0 -1,0 -1,0z"/>
  <path class="fil8" d="M5970 7742c-1,0 -2,0 -2,-1l-774 -584c-2,-1 -2,-4 -1,-5 1,-2 3,-2 5,-1l772 583 754 -596c1,-1 3,-1 5,1 1,1 0,3 -1,5l-756 597c-1,1 -2,1 -2,1z"/>
  <polygon class="fil10" points="6097,7788 5850,7790 5849,7660 6096,7658 "/>
  <path class="fil6" d="M7332 8278c0,80 -205,144 -456,144 -252,0 -456,-64 -456,-144 0,-80 204,-145 456,-145 251,0 456,65 456,145z"/>
  <polygon class="fil6" points="6420,8283 7332,8283 7332,8134 6420,8134 "/>
  <path class="fil2" d="M7332 8137c0,80 -205,144 -456,144 -252,0 -456,-64 -456,-144 0,-80 204,-145 456,-145 251,0 456,65 456,145z"/>
  <path class="fil3" d="M6929 7996c-121,0 -235,15 -321,42 -83,26 -131,62 -131,99 0,36 48,72 131,99 86,27 200,42 321,42 122,0 236,-15 322,-42 83,-27 131,-63 131,-99 0,-37 -48,-73 -131,-99 -86,-27 -200,-42 -322,-42zm0 289c-122,0 -237,-15 -323,-43 -88,-28 -136,-65 -136,-105 0,-40 48,-78 136,-106 86,-27 201,-42 323,-42 123,0 237,15 324,42 87,28 136,66 136,106 0,40 -49,77 -136,105 -87,28 -201,43 -324,43z"/>
  <path class="fil6" d="M7426 8043c0,80 -205,144 -456,144 -252,0 -456,-64 -456,-144 0,-80 204,-145 456,-145 251,0 456,65 456,145z"/>
  <polygon class="fil6" points="6514,8048 7426,8048 7426,7899 6514,7899 "/>
  <path class="fil2" d="M7426 7902c0,80 -205,144 -456,144 -252,0 -456,-64 -456,-144 0,-80 204,-145 456,-145 251,0 456,65 456,145z"/>
  <path class="fil3" d="M7023 7761c-121,0 -235,15 -321,42 -83,26 -131,62 -131,99 0,36 48,72 131,99 86,27 200,42 321,42 122,0 236,-15 322,-42 83,-27 131,-63 131,-99 0,-37 -48,-73 -131,-99 -86,-27 -200,-42 -322,-42zm0 289c-122,0 -237,-15 -323,-43 -88,-28 -136,-65 -136,-105 0,-40 48,-78 136,-106 86,-27 201,-42 323,-42 123,0 237,15 324,42 87,28 136,66 136,106 0,40 -49,77 -136,105 -87,28 -201,43 -324,43z"/>
  <path class="fil6" d="M7010 7948c-56,56 -246,-43 -423,-222 -177,-179 -275,-370 -219,-426 57,-56 247,44 424,223 177,178 275,369 218,425z"/>
  <polygon class="fil6" points="7007,7951 6365,7304 6471,7199 7112,7847 "/>
  <path class="fil2" d="M7110 7849c-56,56 -246,-44 -423,-223 -177,-178 -275,-369 -218,-425 56,-56 246,43 423,222 177,179 275,370 218,426z"/>
  <path class="fil3" d="M7148 7887l0 0 0 0zm-596 -660c-19,0 -33,5 -43,15 -26,25 -18,85 22,162 41,80 111,172 196,258 86,86 177,157 256,199 78,40 137,49 163,23 26,-25 17,-84 -22,-162 -42,-80 -111,-172 -197,-258 -85,-86 -176,-157 -256,-199 -48,-25 -89,-38 -119,-38zm551 679c-32,0 -74,-13 -123,-39 -80,-42 -172,-113 -258,-200 -86,-87 -156,-179 -197,-260 -42,-81 -50,-142 -21,-170 29,-29 89,-21 170,22 81,42 172,113 258,200 86,87 156,179 198,260 42,81 49,142 21,170l0 0c-12,12 -28,17 -48,17z"/>
  <polygon class="fil2" points="3018,3650 4416,3650 4416,2453 3018,2453 "/>
  <polygon class="fil3" points="2851,3483 4249,3483 4249,2286 2851,2286 "/>
  <path class="fil5" d="M3444 2634c25,-11 50,-18 76,-21l-2 -139c-43,5 -86,15 -128,34 -103,44 -179,123 -222,217l130 46c30,-59 80,-109 146,-137z"/>
  <path class="fil6" d="M3278 2985c-14,-48 -15,-98 -4,-146l-130 -46c-21,79 -20,165 7,247l127 -55z"/>
  <path class="fil6" d="M3969 2767l-127 54c41,140 -28,293 -166,352 -137,59 -295,5 -369,-121l-127 54c104,196 344,282 551,193 207,-89 308,-322 238,-532z"/>
  <path class="fil2" d="M3592 2612c90,10 174,61 221,143l127 -55c-71,-133 -205,-216 -349,-226l1 138z"/>
  <polygon class="fil11" points="2567,7990 2160,7909 2337,7390 2733,7534 "/>
  <path class="fil8" d="M3041 8422l-1038 -284 205 -371 406 112 270 170c133,79 197,231 157,373l0 0z"/>
  <polygon class="fil11" points="1734,8064 1313,8089 1352,7542 1778,7581 "/>
  <path class="fil8" d="M2301 8351l-1077 0 99 -412 422 0 305 93c149,41 252,171 251,319l0 0z"/>
  <path class="fil8" d="M1585 5052c-45,117 -77,250 -119,390 -225,746 -193,2324 -193,2324l555 -14c0,0 208,-916 300,-1593 75,180 217,474 217,474 0,0 -92,681 -138,894 184,71 366,109 592,172 270,-906 328,-1033 215,-1376 -145,-442 -513,-1244 -636,-1416 -264,48 -529,97 -793,145z"/>
  <path class="fil11" d="M2845 4404c0,0 236,-272 370,-408 142,-142 372,-331 398,-299 15,18 -11,51 -87,133 8,-1 32,3 42,22 17,29 -2,50 -3,52 3,0 32,-3 46,15 16,19 15,41 6,59 6,-1 31,-1 44,16 14,18 15,46 -1,62 -31,30 -123,116 -162,164 -78,93 -311,462 -459,567 -44,-151 -194,-383 -194,-383z"/>
  <path class="fil8" d="M3554 4131c-12,0 -24,-4 -32,-11 -12,-10 -15,-24 -9,-37 -17,3 -34,-1 -46,-11 -12,-11 -16,-27 -10,-40 -18,3 -36,-1 -49,-12 -8,-7 -12,-17 -13,-27 0,-7 3,-15 8,-21 -8,-2 -15,-5 -20,-10 -8,-7 -12,-16 -12,-25 1,-9 6,-18 15,-24l100 -64c2,-1 4,-1 5,1 1,1 1,3 -1,4l-100 64c-7,5 -11,12 -12,19 0,8 3,14 9,20 6,5 14,8 24,9 1,0 2,1 3,2 0,2 0,3 -1,4 -7,6 -11,14 -11,21 1,8 4,16 11,22 12,11 33,14 50,8 1,-1 3,0 4,1 1,1 1,3 0,4 -9,12 -7,28 5,38 12,11 31,14 47,9 2,-1 4,0 4,1 1,1 1,3 0,4 -9,11 -7,25 3,34 14,12 38,13 53,2l68 -55c1,-1 3,-1 5,0 1,2 1,4 -1,5l-68 56c-8,6 -19,9 -29,9z"/>
  <path class="fil3" d="M2268 4142l475 164c50,19 106,7 145,-30l231 -225 298 339 -311 358c-108,123 -279,172 -435,123l-375 -116 -28 -613z"/>
  <path class="fil3" d="M1484 4522c45,-160 199,-411 526,-442 278,-25 480,209 549,472 48,182 23,450 48,650 -248,38 -1204,170 -1204,170 0,0 5,-582 81,-850z"/>
  <path class="fil8" d="M2547 5108c-2,0 -3,-2 -4,-3 -55,-337 -221,-729 -223,-733 -1,-2 0,-4 2,-5 1,-1 4,0 4,2 2,4 168,397 224,734 1,2 -1,4 -3,4 0,1 0,1 0,1z"/>
  <path class="fil3" d="M2151 4772c181,682 13,632 -105,659 -95,22 -248,-265 -325,-555l430 -104z"/>
  <polygon class="fil8" points="2181,4336 2200,4205 2073,4241 2157,4343 2252,4902 2349,4973 2393,4862 "/>
  <polygon class="fil5" points="2745,5749 1867,5545 2128,4425 3005,4630 "/>
  <path class="fil8" d="M2677 4761c0,0 0,0 -1,0l-342 -80c-1,0 -3,-2 -2,-4 0,-2 2,-3 4,-3l342 80c2,0 3,2 3,4 -1,2 -2,3 -4,3z"/>
  <path class="fil8" d="M2640 4918c0,0 0,0 0,0l-342 -79c-2,-1 -3,-3 -3,-5 1,-1 2,-3 4,-2l342 79c2,1 3,3 3,5 0,1 -2,2 -4,2z"/>
  <path class="fil8" d="M2619 4830c0,0 0,0 0,0l-264 -61c-1,0 -3,-2 -2,-4 0,-2 2,-3 4,-3l263 62c2,0 3,2 3,4 -1,1 -2,2 -4,2z"/>
  <polygon class="fil3" points="1560,4775 1779,5336 2155,5048 1977,4488 "/>
  <path class="fil11" d="M2104 5038c179,-37 584,-120 625,-129 77,-16 449,-92 464,-38 15,57 -179,76 -211,86 40,-2 244,-56 253,-13 11,55 -243,109 -245,110 28,-4 229,-56 239,-13 14,56 -205,95 -240,102 4,4 149,-45 163,0 13,49 -160,79 -182,90 -59,24 -171,55 -297,96 -296,96 -431,159 -583,146 -68,-5 -146,-85 -211,-202 82,-100 143,-134 225,-235z"/>
  <path class="fil3" d="M2548 5406c0,0 -546,149 -712,41 -95,-62 -158,-321 -158,-321l776 -165 94 445z"/>
  <path class="fil8" d="M1748 5328c-1,0 -3,-1 -3,-2l-188 -478c-1,-2 0,-4 2,-4 2,-1 4,0 4,2l188 477c1,2 0,4 -2,5 0,0 0,0 -1,0z"/>
  <path class="fil8" d="M1957 5039c-1,0 -3,-2 -3,-3 -1,-2 1,-4 3,-4l496 -74c2,0 4,1 4,3 1,2 -1,4 -3,4l-496 74c0,0 -1,0 -1,0z"/>
  <path class="fil8" d="M2137 5005c-2,0 -3,-1 -3,-3l-98 -384c0,-2 1,-4 3,-4 1,-1 3,0 4,2l97 385c1,2 0,4 -2,4 0,0 -1,0 -1,0z"/>
  <path class="fil8" d="M2929 4963c-2,0 -4,-1 -4,-3 0,-2 1,-3 3,-4l202 -32c2,0 4,1 4,3 0,2 -1,4 -3,4l-202 32c0,0 0,0 0,0z"/>
  <path class="fil8" d="M2948 5058c-2,0 -3,-1 -3,-3 -1,-2 1,-4 3,-4l178 -31c2,0 4,1 4,3 0,2 -1,3 -3,4l-178 31c0,0 -1,0 -1,0z"/>
  <path class="fil8" d="M2963 5151c-1,0 -3,-1 -3,-2 0,-2 1,-4 3,-4l132 -26c2,0 4,1 4,3 1,2 -1,4 -2,4l-133 25c0,0 0,0 -1,0z"/>
  <path class="fil11" d="M2760 4969c89,-75 105,-121 93,-135 -21,-23 -128,13 -272,106 48,13 131,16 179,29z"/>
  <path class="fil8" d="M2729 4913c-1,0 -3,-1 -3,-3 -1,-2 1,-4 3,-4 15,-4 57,-12 111,-22 1,-1 3,1 4,2 0,2 -1,4 -3,5 -54,9 -95,18 -111,22 0,0 0,0 -1,0z"/>
  <path class="fil11" d="M2193 3981c-53,38 -204,-53 -204,-53l-92 -191c0,-92 83,-173 175,-173l0 0c91,0 165,74 165,166 0,0 11,213 -44,251z"/>
  <polygon class="fil11" points="1896,4106 2132,4215 2132,3734 1896,3734 "/>
  <path class="fil3" d="M2052 3755c0,0 31,-17 67,-17 8,0 -7,63 -14,59 -33,-15 -53,-42 -53,-42z"/>
  <path class="fil8" d="M2143 3741c47,10 77,51 77,51 0,0 -45,24 -91,14 -9,-2 -17,-5 -24,-9 -6,-20 -1,-42 14,-59 8,0 16,1 24,3z"/>
  <path class="fil8" d="M2192 3604c5,-25 -52,-72 -115,-79 -79,-9 -170,16 -220,104 -48,85 -46,196 39,284 21,-16 40,-31 65,-51 -43,-44 -46,-90 -27,-111 15,-17 45,-18 76,8 10,-25 25,-62 71,-95 53,-39 106,-40 111,-60z"/>
  <path class="fil8" d="M2129 3995c0,0 0,0 -1,0 -83,-21 -137,-63 -137,-63 -2,-1 -2,-4 -1,-5 1,-2 3,-2 5,-1 0,1 53,42 135,62 2,1 3,3 3,5 -1,1 -2,2 -4,2z"/>
  <path class="fil8" d="M2175 3897c-7,0 -14,-2 -19,-7 -10,-11 -6,-25 -6,-26 1,-2 3,-3 5,-2 1,0 3,2 2,4 0,0 -3,11 4,19 6,6 16,7 24,3 2,-1 4,0 5,1 1,2 0,4 -2,5 -4,2 -8,3 -13,3z"/>
  <path class="fil11" d="M2236 3778c0,8 1,20 6,31 6,14 19,22 19,31 0,5 -7,14 -30,19l5 -81z"/>
  <path class="fil8" d="M1975 3841c-1,0 -2,-1 -3,-2 -21,-26 -29,-55 -17,-66 11,-10 34,0 41,4 2,1 2,3 2,4 -1,2 -3,3 -5,2 -9,-4 -27,-11 -34,-5 -6,6 -3,30 19,57 1,2 1,4 -1,5 0,0 -1,1 -2,1z"/>
 </g>
</svg>
